#!OML:ASF F:\VICON\USERDATA\INSTALL\rory3\rory3.ASF
:FULLY-SPECIFIED
:DEGREES
111
root -12.7659 17.5494 4.10506 -4.24954 1.32955 6.67736
lowerback 10.0725 -0.115389 -7.20854
upperback 1.08523 -0.99039 -0.801886
thorax -4.41207 -0.368161 3.35377
lowerneck -19.9458 -5.05645 -12.4252
upperneck 28.9612 -5.59598 7.95509
head 13.7728 -2.7569 4.30581
rclavicle 1.11816e-016 -4.37326e-015
rhumerus -38.0212 -15.9221 -78.6629
rradius 28.454
rwrist 7.95335
rhand -15.9063 11.0044
rfingers 7.12502
rthumb 10.2905 -18.7239
lclavicle 1.11816e-016 -4.37326e-015
lhumerus -31.5059 1.33122 82.6588
lradius 43.3511
lwrist -2.39993
lhand -19.0751 25.1088
lfingers 7.12502
lthumb 7.2327 54.9652
rfemur -25.864 -1.25521 9.94624
rtibia 31.1301
rfoot -2.16289 -8.21649
rtoes 4.27092
lfemur 9.12056 -0.575381 -32.4466
ltibia 15.7495
lfoot -12.9396 -6.81836
ltoes 0.467261
112
root -12.7729 17.538 4.24718 -4.2587 1.61627 6.68159
lowerback 10.1378 -0.171719 -7.17505
upperback 1.07438 -1.06858 -0.823012
thorax -4.45238 -0.405751 3.32435
lowerneck -20.1137 -4.99928 -12.2551
upperneck 29.1355 -5.54554 7.91278
head 13.8684 -2.721 4.27423
rclavicle -1.36043e-014 -1.39149e-014
rhumerus -38.1873 -15.9612 -78.5587
rradius 28.5552
rwrist 8.25733
rhand -15.7867 11.176
rfingers 7.12502
rthumb 10.4059 -18.5465
lclavicle -1.36043e-014 -1.39149e-014
lhumerus -31.4847 1.12614 82.5947
lradius 43.7412
lwrist -1.72911
lhand -19.2545 25.7241
lfingers 7.12502
lthumb 7.05952 55.5863
rfemur -25.679 -0.634428 9.5905
rtibia 28.8958
rfoot -2.53523 -7.60455
rtoes 3.19863
lfemur 9.90466 -0.738156 -32.4095
ltibia 15.3629
lfoot -12.9128 -7.03888
ltoes 0.971439
113
root -12.7799 17.5266 4.38854 -4.25773 1.9669 6.76145
lowerback 10.1273 -0.205331 -7.24415
upperback 1.09898 -1.11954 -0.844252
thorax -4.41416 -0.43172 3.34725
lowerneck -20.2728 -4.93295 -11.958
upperneck 29.3304 -5.52144 7.84292
head 13.9688 -2.68594 4.20542
rclavicle -1.19271e-015 -1.98785e-015
rhumerus -38.3209 -16.0457 -78.4554
rradius 28.5705
rwrist 8.24703
rhand -15.8632 11.2083
rfingers 7.12502
rthumb 10.3321 -18.5179
lclavicle -1.19271e-015 -1.98785e-015
lhumerus -31.3894 0.961167 82.5859
lradius 44.19
lwrist -1.12033
lhand -18.8384 26.8202
lfingers 7.12502
lthumb 7.46111 56.6687
rfemur -25.4861 0.0882838 9.07452
rtibia 26.7518
rfoot -3.38731 -6.80808
rtoes 2.60173
lfemur 10.6216 -1.02754 -32.4797
ltibia 15.0388
lfoot -12.8762 -7.24192
ltoes 1.1648
114
root -12.7867 17.5145 4.53144 -4.1971 2.33513 6.91012
lowerback 10.0052 -0.248504 -7.39032
upperback 1.15471 -1.17968 -0.859629
thorax -4.278 -0.465242 3.41838
lowerneck -20.2743 -4.90365 -11.8434
upperneck 29.2916 -5.49451 7.77801
head 13.942 -2.66873 4.16247
rclavicle -7.82715e-015 1.98785e-015
rhumerus -38.3963 -16.0991 -78.3711
rradius 28.6882
rwrist 8.11036
rhand -15.8097 11.0901
rfingers 7.12502
rthumb 10.3837 -18.6335
lclavicle -7.82715e-015 1.98785e-015
lhumerus -31.221 0.958326 82.6022
lradius 44.4977
lwrist -0.841732
lhand -18.6906 27.3461
lfingers 7.12502
lthumb 7.60377 57.1894
rfemur -25.417 0.879798 8.43
rtibia 24.871
rfoot -4.46713 -5.75693
rtoes 0.655239
lfemur 11.313 -1.38593 -32.6228
ltibia 14.6019
lfoot -12.7246 -7.51278
ltoes 1.15459
115
root -12.7963 17.5004 4.67272 -4.12327 2.65399 6.81334
lowerback 9.93087 -0.322972 -7.34569
upperback 1.19147 -1.26096 -0.775163
thorax -4.1875 -0.509736 3.49076
lowerneck -20.2666 -4.87137 -11.925
upperneck 29.145 -5.41273 7.79001
head 13.8701 -2.63823 4.19141
rclavicle 1.46852e-014 -1.59028e-014
rhumerus -38.3644 -16.005 -78.3214
rradius 28.7947
rwrist 7.76953
rhand -15.5495 10.7075
rfingers 7.12502
rthumb 10.6348 -19.0034
lclavicle 1.46852e-014 -1.59028e-014
lhumerus -31.1295 1.12053 82.6022
lradius 44.7566
lwrist -0.725196
lhand -18.8386 26.9526
lfingers 7.12502
lthumb 7.46094 56.8011
rfemur -25.3498 1.88711 8.01806
rtibia 23.0583
rfoot -5.08447 -4.53684
rtoes -4.42702
lfemur 11.8875 -1.77459 -32.4934
ltibia 14.3935
lfoot -12.7836 -7.66634
ltoes 0.301913
116
root -12.8041 17.5046 4.81246 -4.09731 2.98338 6.74894
lowerback 9.91906 -0.349304 -7.28206
upperback 1.21252 -1.28567 -0.752703
thorax -4.15676 -0.524401 3.48134
lowerneck -20.2749 -4.88458 -11.9511
upperneck 29.1133 -5.4217 7.79965
head 13.8608 -2.64258 4.19711
rclavicle -6.60959e-015 -2.70347e-014
rhumerus -38.4168 -16.2044 -78.1762
rradius 28.7501
rwrist 7.64771
rhand -15.6508 10.4065
rfingers 7.12502
rthumb 10.537 -19.3094
lclavicle -6.60959e-015 -2.70347e-014
lhumerus -31.0474 1.09788 82.5817
lradius 44.8663
lwrist -0.705665
lhand -18.9935 26.355
lfingers 7.12502
lthumb 7.31141 56.2087
rfemur -25.1278 2.67727 7.63806
rtibia 21.514
rfoot -5.55569 -3.0282
rtoes -11.3123
lfemur 12.4266 -2.02703 -32.3814
ltibia 14.295
lfoot -12.8559 -7.84617
ltoes -1.03394
117
root -12.8134 17.4703 4.96003 -4.08775 3.31399 6.90945
lowerback 9.90539 -0.359116 -7.42342
upperback 1.21712 -1.31413 -0.792595
thorax -4.13889 -0.537149 3.5221
lowerneck -20.3608 -4.92518 -11.992
upperneck 29.1991 -5.45065 7.77574
head 13.9212 -2.66235 4.19167
rclavicle -2.36057e-015 1.11319e-014
rhumerus -38.6003 -16.1793 -78.1246
rradius 28.722
rwrist 7.06125
rhand -15.5959 10.1432
rfingers 7.12502
rthumb 10.5899 -19.57
lclavicle -2.36057e-015 1.11319e-014
lhumerus -30.9835 1.02531 82.6115
lradius 44.9099
lwrist -0.609537
lhand -18.9562 26.2039
lfingers 7.12502
lthumb 7.3474 56.0564
rfemur -25.0517 3.45138 6.98362
rtibia 20.0587
rfoot -6.01813 -1.81357
rtoes -11.8977
lfemur 12.8538 -2.2275 -32.514
ltibia 14.5572
lfoot -12.967 -8.04747
ltoes -2.10261
118
root -12.8211 17.4605 5.10659 -4.07818 3.67576 6.96778
lowerback 9.93134 -0.411578 -7.49769
upperback 1.19626 -1.39387 -0.767418
thorax -4.16377 -0.573655 3.60115
lowerneck -20.3248 -4.91407 -12.0953
upperneck 29.1987 -5.40803 7.79909
head 13.9127 -2.65282 4.22725
rclavicle -3.05631e-015 -3.18055e-014
rhumerus -38.7218 -15.888 -78.1433
rradius 28.6759
rwrist 6.32162
rhand -15.4858 9.94374
rfingers 7.12502
rthumb 10.6962 -19.764
lclavicle -3.05631e-015 -3.18055e-014
lhumerus -31.0018 1.14443 82.6285
lradius 45.1114
lwrist -0.20904
lhand -18.6632 26.9159
lfingers 7.12502
lthumb 7.6302 56.7583
rfemur -24.8319 3.68236 6.64148
rtibia 19.0103
rfoot -6.84278 -0.440709
rtoes -7.75209
lfemur 13.2521 -2.60425 -32.5874
ltibia 14.8766
lfoot -13.0722 -8.13253
ltoes -2.15151
119
root -12.8294 17.4443 5.24809 -3.98709 4.02054 6.80556
lowerback 9.89419 -0.418711 -7.29236
upperback 1.12982 -1.37978 -0.740896
thorax -4.21875 -0.566115 3.51194
lowerneck -20.0802 -4.94344 -12.0554
upperneck 29.1052 -5.49057 7.79519
head 13.8289 -2.68723 4.20127
rclavicle -1.71949e-014 -9.14409e-015
rhumerus -38.8584 -16.1993 -77.8482
rradius 28.6888
rwrist 7.15678
rhand -15.0832 9.73888
rfingers 7.12502
rthumb 11.0845 -19.9484
lclavicle -1.71949e-014 -9.14409e-015
lhumerus -31.0357 1.13832 82.6254
lradius 45.2046
lwrist -0.099311
lhand -18.3547 27.4615
lfingers 7.12502
lthumb 7.928 57.2929
rfemur -24.7448 3.6916 6.6622
rtibia 18.0962
rfoot -7.11614 1.0089
rtoes -6.73915
lfemur 13.3415 -3.04071 -32.4218
ltibia 15.5169
lfoot -13.2517 -8.21744
ltoes -1.47239
120
root -12.838 17.4322 5.38948 -3.94272 4.31974 6.65311
lowerback 9.88082 -0.391999 -7.10625
upperback 1.13392 -1.32191 -0.725384
thorax -4.21728 -0.540606 3.41602
lowerneck -20.1376 -5.00493 -12.0744
upperneck 29.1468 -5.60494 7.9063
head 13.8786 -2.72302 4.23074
rclavicle 1.26725e-015 1.82882e-014
rhumerus -38.8951 -16.3272 -77.8064
rradius 28.641
rwrist 6.83647
rhand -15.3726 10.0374
rfingers 7.12502
rthumb 10.8054 -19.6646
lclavicle 1.26725e-015 1.82882e-014
lhumerus -30.9696 0.994431 82.6662
lradius 45.2173
lwrist -0.0653691
lhand -18.3647 27.8134
lfingers 7.12502
lthumb 7.91833 57.6451
rfemur -24.5968 3.52896 6.7883
rtibia 17.7172
rfoot -7.48234 2.42029
rtoes -9.55291
lfemur 13.5136 -3.47055 -32.2702
ltibia 16.0423
lfoot -13.224 -8.34482
ltoes -1.25538
121
root -12.8481 17.4158 5.53345 -3.93778 4.62523 6.62941
lowerback 9.95439 -0.391133 -7.08511
upperback 1.15706 -1.32176 -0.68808
thorax -4.23356 -0.540503 3.44453
lowerneck -20.4037 -5.0356 -12.1515
upperneck 29.2751 -5.60778 7.95187
head 13.9967 -2.72315 4.26603
rclavicle 1.67725e-015 7.55382e-015
rhumerus -38.9508 -16.3003 -77.761
rradius 28.7108
rwrist 6.46952
rhand -14.9878 9.34931
rfingers 7.12502
rthumb 11.1765 -20.333
lclavicle 1.67725e-015 7.55382e-015
lhumerus -30.9994 1.06135 82.7431
lradius 45.3391
lwrist 0.0276689
lhand -18.5749 27.8203
lfingers 7.12502
lthumb 7.71548 57.6595
rfemur -24.5159 3.23426 6.81407
rtibia 17.7405
rfoot -7.42329 3.81198
rtoes -11.9007
lfemur 13.7859 -3.87139 -32.2822
ltibia 16.5619
lfoot -13.2625 -8.24671
ltoes -2.85426
122
root -12.8598 17.4008 5.68189 -3.98669 4.94779 6.56752
lowerback 9.94832 -0.393769 -7.04333
upperback 1.21656 -1.31566 -0.656285
thorax -4.16834 -0.541639 3.45285
lowerneck -20.4984 -5.0519 -12.1109
upperneck 29.2707 -5.61167 7.89112
head 14.0122 -2.72584 4.23249
rclavicle -1.73812e-014 3.18055e-015
rhumerus -38.9207 -16.2245 -77.7756
rradius 28.656
rwrist 6.25423
rhand -14.8756 9.03109
rfingers 7.12502
rthumb 11.2847 -20.6453
lclavicle -1.73812e-014 3.18055e-015
lhumerus -31.082 1.12273 82.7804
lradius 45.4549
lwrist 0.14972
lhand -18.6565 27.7423
lfingers 7.12502
lthumb 7.63669 57.5844
rfemur -24.4305 3.24446 6.79211
rtibia 18.1798
rfoot -7.12152 4.985
rtoes -10.2346
lfemur 14.1741 -4.22076 -32.2508
ltibia 17.0243
lfoot -13.4352 -8.0662
ltoes -5.47026
123
root -12.871 17.3837 5.83239 -4.09525 5.27055 6.61329
lowerback 9.9944 -0.355605 -7.09459
upperback 1.26294 -1.27333 -0.684683
thorax -4.14949 -0.52176 3.44681
lowerneck -20.4226 -5.05388 -12.0703
upperneck 29.222 -5.64032 7.9064
head 13.9772 -2.7316 4.22523
rclavicle 8.22472e-015 6.36111e-015
rhumerus -38.9246 -16.417 -77.666
rradius 28.4431
rwrist 6.36795
rhand -14.9402 9.16703
rfingers 7.12502
rthumb 11.2224 -20.5128
lclavicle 8.22472e-015 6.36111e-015
lhumerus -31.2241 1.0879 82.7817
lradius 45.5321
lwrist 0.0859284
lhand -18.5791 27.7312
lfingers 7.12502
lthumb 7.71146 57.5706
rfemur -24.2102 3.41561 6.63901
rtibia 18.7564
rfoot -6.87087 6.21958
rtoes -7.33594
lfemur 14.6046 -4.51025 -32.3282
ltibia 17.6046
lfoot -13.6321 -7.91991
ltoes -7.37637
124
root -12.8869 17.366 5.98254 -4.1503 5.56774 6.52218
lowerback 10.0639 -0.328677 -7.05651
upperback 1.26387 -1.23776 -0.653655
thorax -4.1913 -0.503022 3.45475
lowerneck -20.4106 -5.07621 -12.1117
upperneck 29.2337 -5.67105 7.94288
head 13.9868 -2.74457 4.24238
rclavicle 1.23868e-014 7.55382e-015
rhumerus -38.9307 -16.5348 -77.5335
rradius 28.2291
rwrist 6.45051
rhand -14.9046 9.15686
rfingers 7.12502
rthumb 11.2568 -20.5211
lclavicle 1.23868e-014 7.55382e-015
lhumerus -31.4332 1.18911 82.7836
lradius 45.613
lwrist -0.210669
lhand -18.5478 26.996
lfingers 7.12502
lthumb 7.74163 56.8343
rfemur -24.0892 3.66806 6.6693
rtibia 19.4356
rfoot -6.25675 7.52956
rtoes -7.70533
lfemur 14.9076 -4.84338 -32.256
ltibia 18.2858
lfoot -13.7505 -7.66936
ltoes -9.06729
125
root -12.9035 17.3481 6.13564 -4.20394 5.92217 6.34398
lowerback 10.0358 -0.339393 -6.95588
upperback 1.32123 -1.23234 -0.580427
thorax -4.11626 -0.505424 3.47318
lowerneck -20.4581 -5.08868 -12.078
upperneck 29.2051 -5.67793 7.90052
head 13.9829 -2.74738 4.21646
rclavicle -8.0632e-015 -2.3059e-014
rhumerus -38.8854 -16.4983 -77.5102
rradius 28.192
rwrist 6.5218
rhand -14.9662 8.70966
rfingers 7.12502
rthumb 11.1974 -20.9715
lclavicle -8.0632e-015 -2.3059e-014
lhumerus -31.6247 1.37412 82.8095
lradius 45.7103
lwrist -0.402121
lhand -18.4383 26.487
lfingers 7.12502
lthumb 7.8473 56.3213
rfemur -23.9849 3.81392 6.81475
rtibia 20.1749
rfoot -5.35899 8.78484
rtoes -6.59044
lfemur 15.1472 -5.32198 -32.1287
ltibia 19.0399
lfoot -13.6622 -7.54824
ltoes -9.3932
